<svg width="236" height="62" viewBox="0 0 236 62" fill="none" xmlns="http://www.w3.org/2000/svg">
<g clip-path="url(#clip0_102_232)">
<path d="M35.2229 5.32387L29.7711 3.86304L25.1768 21.0095L21.0289 5.52956L15.5769 6.99039L20.0584 23.7153L8.89603 12.553L4.90496 16.544L17.1487 28.7879L1.90107 24.7023L0.440231 30.1541L17.1002 34.6181C16.9094 33.7954 16.8085 32.9382 16.8085 32.0575C16.8085 25.823 21.8625 20.769 28.097 20.769C34.3315 20.769 39.3855 25.823 39.3855 32.0575C39.3855 32.9326 39.2858 33.7845 39.0975 34.6023L54.2383 38.6593L55.699 33.2074L38.9728 28.7256L54.2215 24.6397L52.7606 19.1879L36.0351 23.6694L47.1975 12.5071L43.2064 8.51606L31.1325 20.59L35.2229 5.32387Z" fill="#FF4405"/>
<path d="M39.0815 34.6658C38.6141 36.642 37.6273 38.4172 36.2733 39.8396L47.2421 50.8086L51.2332 46.8175L39.0815 34.6658Z" fill="#FF4405"/>
<path d="M36.1625 39.9543C34.7922 41.3539 33.0604 42.3984 31.1184 42.9366L35.1097 57.8325L40.5616 56.3716L36.1625 39.9543Z" fill="#FF4405"/>
<path d="M30.9147 42.9911C30.0137 43.2228 29.0693 43.3459 28.0961 43.3459C27.0534 43.3459 26.0437 43.2045 25.0851 42.9399L21.0902 57.8493L26.542 59.3101L30.9147 42.9911Z" fill="#FF4405"/>
<path d="M24.8924 42.8849C22.98 42.3199 21.279 41.2621 19.9367 39.8584L8.94082 50.8543L12.9319 54.8454L24.8924 42.8849Z" fill="#FF4405"/>
<path d="M19.846 39.7612C18.5267 38.3487 17.5656 36.5972 17.1082 34.6515L1.91795 38.7218L3.37878 44.1736L19.846 39.7612Z" fill="#FF4405"/>
</g>
<path d="M88.505 16.6743V36.3206L75.9112 16.6743H70.8737V43.7993H75.9112V24.3081L88.505 43.7993H93.5425V16.6743H88.505Z" fill="#181D27"/>
<path d="M95.8124 21.7506H101.005V16.6743H95.8124V21.7506ZM95.8899 43.7993V24.4243H100.927V43.7993H95.8899Z" fill="#181D27"/>
<path d="M122.602 34.1118C122.602 27.4081 117.835 24.2306 112.798 24.1918C107.722 24.1531 103.033 27.4081 103.033 34.1118C103.033 40.8156 107.722 44.0706 112.798 44.0318C117.409 43.9931 120.587 41.8618 122.059 38.3356L118.145 36.7081C116.944 39.1106 115.045 39.9631 112.798 40.0018C110.86 40.0406 108.652 39.1106 108.187 35.6618H122.485C122.563 35.1581 122.602 34.6543 122.602 34.1118ZM112.798 28.1831C114.735 28.2218 116.712 29.2681 117.332 32.0581H108.264C108.923 29.2293 110.899 28.1443 112.798 28.1831Z" fill="#181D27"/>
<path d="M134.244 28.0281V24.1918H131.066V18.9993L126.029 20.5493V24.1918H122.851V28.0281H126.029V38.0643C126.029 41.8618 126.339 43.7993 132.229 43.7993H133.585V39.3818H132.229C131.299 39.3818 131.066 39.2268 131.066 38.0643V28.0281H134.244Z" fill="#181D27"/>
<path d="M141.729 39.5756L152.424 28.6481V24.4243H136.382V28.6481H146.767L136.072 39.5756V43.7993H152.54V39.5756H141.729Z" fill="#181D27"/>
<path d="M154.346 38.3356L159.423 37.5606C159.771 39.4981 162.058 40.2343 163.453 40.2343C164.886 40.2343 167.366 39.9243 167.366 37.5993C167.366 33.0656 154.928 38.7231 154.928 30.0431C154.928 24.4631 161.399 24.1531 163.453 24.1531C165.39 24.1531 171.009 24.4631 172.171 28.9581L167.366 29.9656C166.94 27.9118 164.77 27.5243 163.608 27.5243C162.445 27.5243 159.965 27.7956 159.965 30.0431C159.965 34.5381 172.404 28.8031 172.404 37.5993C172.404 43.5281 165.584 44.0318 163.453 44.0318C161.515 44.0318 155.354 43.5281 154.346 38.3356Z" fill="#181D27"/>
<path d="M178.948 34.1118C178.948 38.8393 181.467 40.2731 184.102 40.2343C186.466 40.1956 188.093 39.2268 189.062 36.5143L193.208 38.5293C191.697 42.4818 188.016 43.9931 184.102 44.0318C179.026 44.0706 173.911 40.8156 173.911 34.1118C173.911 27.4081 179.026 24.1531 184.102 24.1918C188.016 24.2306 191.697 25.7418 193.208 29.6943L189.062 31.7093C188.093 28.9968 186.466 28.0281 184.102 27.9893C181.467 27.9506 178.948 29.3843 178.948 34.1118Z" fill="#181D27"/>
<path d="M206.732 24.1143C204.135 24.1143 201.772 25.4706 200.26 28.3768V16.6743H195.223V43.7993H200.26V36.9406C200.26 28.0668 203.942 27.3306 205.298 27.3306C207.468 27.3306 207.778 29.5781 207.778 32.8718V43.7993H212.815V32.8718C212.815 28.7643 212.157 24.1143 206.732 24.1143Z" fill="#181D27"/>
<path d="M234.084 34.1118C234.084 27.4081 229.317 24.2306 224.28 24.1918C219.204 24.1531 214.515 27.4081 214.515 34.1118C214.515 40.8156 219.204 44.0706 224.28 44.0318C228.891 43.9931 232.069 41.8618 233.541 38.3356L229.627 36.7081C228.426 39.1106 226.527 39.9631 224.28 40.0018C222.342 40.0406 220.134 39.1106 219.669 35.6618H233.967C234.045 35.1581 234.084 34.6543 234.084 34.1118ZM224.28 28.1831C226.217 28.2218 228.194 29.2681 228.814 32.0581H219.746C220.405 29.2293 222.381 28.1443 224.28 28.1831Z" fill="#181D27"/>
<defs>
<clipPath id="clip0_102_232">
<rect width="56.8333" height="56.8333" fill="white" transform="translate(0 2.58337)"/>
</clipPath>
</defs>
</svg>
